:SAMPLES-PER-SECOND 30
:FRAME-RANGE 1-2009
:FULLY-SPECIFIED
:DEGREES
1193
root  47.3139 39.2552 -49.6823 -176.183 21.3591 179.462
RightUpLeg  -12.8216 -18.5271 -4.40843
RightLeg  23.5461 -16.8308 -8.07437
RightFoot  -8.9656 -0.224801 7.88585
RightToes  2.96424e-010 1.2921e-014 -6.02303e-014
Spine  -3.09638 1.90667 8.92779
Spine1  5.81364 3.86681 -8.63596
HEad  7.26449 56.2718 -22.9256
LeftShoulder1  -0.514325 5.00859 -24.0984
LeftArm  -19.8526 1.9048 -34.5252
LeftForeArm  -29.7789 -13.617 -5.34506
LeftHand  0.0261526 1.28279 -0.951156
RightShoulder  1.49849 2.18087 20.9921
RightArm  -22.8199 -4.61711 40.0369
RightForeArm  58.9664 5.1366 6.29348
RightHand  -0.0333107 -5.24626 -14.987
LeftUpLeg  -9.06045 -8.57746 15.6975
LeftLeg  27.6412 1.707 1.31168
LeftFoot  -8.47769 0.166058 -4.60916
LeftToes  -1.2485e-010 1.20979e-011 -1.0929e-011
1194
root  46.5789 39.1835 -49.5471 -175.366 19.3059 179.751
RightUpLeg  -14.1293 -20.6748 -4.81622
RightLeg  23.8912 -16.6236 -8.10148
RightFoot  -8.03718 -0.297375 8.39747
RightToes  2.96424e-010 1.2921e-014 -6.02303e-014
Spine  -2.78072 1.59893 8.51399
Spine1  5.44001 3.47499 -8.40057
HEad  7.70181 54.9338 -22.4187
LeftShoulder1  -0.435477 4.75551 -23.9222
LeftArm  -20.5251 0.548447 -33.8437
LeftForeArm  -31.0526 -14.2791 -5.22464
LeftHand  0.00168935 1.89764 -0.407609
RightShoulder  1.44524 1.97336 21.0533
RightArm  -22.8277 -5.73801 39.7812
RightForeArm  58.3482 5.51625 6.3629
RightHand  -0.000461927 -5.50531 -15.0133
LeftUpLeg  -8.97209 -8.57029 17.0244
LeftLeg  24.4587 -1.80654 -0.563383
LeftFoot  -8.40291 0.182601 -5.15417
LeftToes  -1.2485e-010 1.20979e-011 -1.0929e-011
1195
root  45.7386 39.0567 -49.42 -174.342 17.442 -179.852
RightUpLeg  -15.8204 -22.2247 -5.09255
RightLeg  24.4492 -16.9342 -8.4408
RightFoot  -6.90052 -0.386519 8.73904
RightToes  2.96424e-010 1.2921e-014 -6.02303e-014
Spine  -2.43514 1.39509 8.46582
Spine1  5.1056 3.21925 -8.28468
HEad  7.87013 52.6511 -21.8779
LeftShoulder1  -0.32034 4.37716 -23.7673
LeftArm  -20.9845 -1.19502 -33.2483
LeftForeArm  -31.9486 -15.3098 -5.21239
LeftHand  -0.00145502 1.80271 -0.27563
RightShoulder  1.43341 1.91234 21.1511
RightArm  -22.9536 -6.67813 39.18
RightForeArm  58.2794 5.3508 6.28105
RightHand  -0.0153676 -5.38705 -15.1136
LeftUpLeg  -9.32387 -10.8598 18.0441
LeftLeg  21.0254 -4.11499 -1.41717
LeftFoot  -8.36987 0.379238 -12.6532
LeftToes  -1.2485e-010 1.20979e-011 -1.0929e-011
1196
root  44.8043 38.9146 -49.2853 -173.246 15.827 -179.151
RightUpLeg  -17.404 -24.9514 -5.15393
RightLeg  24.459 -15.834 -7.93251
RightFoot  -5.65337 -0.491745 9.1037
RightToes  2.96424e-010 1.2921e-014 -6.02303e-014
Spine  -1.84008 1.24321 8.62785
Spine1  4.78335 3.00109 -8.07132
HEad  7.4811 49.7562 -21.4943
LeftShoulder1  -0.240818 4.1101 -23.7938
LeftArm  -20.9161 -3.4731 -32.4915
LeftForeArm  -32.2113 -16.7803 -5.37482
LeftHand  0.0200965 1.35564 -0.803327
RightShoulder  1.43458 1.90792 21.2
RightArm  -23.2918 -7.19671 38.5613
RightForeArm  58.3012 4.60642 6.01776
RightHand  -0.00512281 -5.46938 -14.9685
LeftUpLeg  -10.3699 -11.7492 18.7359
LeftLeg  18.8684 -6.51163 -2.14967
LeftFoot  -10.6461 0.169438 -17.3575
LeftToes  -1.2485e-010 1.20979e-011 -1.0929e-011
1197
root  43.8528 38.8069 -49.0889 -172.234 14.6447 -178.849
RightUpLeg  -19.0886 -26.943 -5.46862
RightLeg  24.1787 -15.1502 -7.52157
RightFoot  -3.97364 -0.637447 9.45843
RightToes  2.96424e-010 1.2921e-014 -6.02303e-014
Spine  -0.940145 1.17916 7.86619
Spine1  4.48687 2.88956 -7.74748
HEad  7.23604 46.2091 -20.2671
LeftShoulder1  -0.142211 3.79379 -22.9072
LeftArm  -21.6459 -5.59363 -33.0597
LeftForeArm  -28.5996 -18.7116 -5.49863
LeftHand  0.237374 -0.563732 -4.59891
RightShoulder  1.45286 1.93237 21.4379
RightArm  -23.9556 -6.96872 37.9693
RightForeArm  58.7053 3.10112 5.47778
RightHand  -0.0185235 -5.36203 -15.2187
LeftUpLeg  -12.2761 -9.48695 18.1292
LeftLeg  18.9048 -8.67901 -2.97398
LeftFoot  -12.8613 -0.118405 -14.6422
LeftToes  -1.2485e-010 1.20979e-011 -1.0929e-011
1198
root  42.9018 38.8082 -48.8683 -171.272 13.8975 -178.706
RightUpLeg  -20.1865 -28.0369 -5.86166
RightLeg  22.4847 -15.16 -6.98918
RightFoot  -1.50507 -0.831107 9.51783
RightToes  2.96424e-010 1.2921e-014 -6.02303e-014
Spine  -0.158421 1.0816 6.72616
Spine1  4.64982 2.78973 -7.48336
HEad  6.85711 42.4055 -18.4958
LeftShoulder1  -0.0171879 3.36386 -22.414
LeftArm  -22.0398 -8.22796 -32.8132
LeftForeArm  -27.0339 -20.7246 -5.73763
LeftHand  0.277481 -1.0286 -4.94319
RightShoulder  1.48026 1.99009 21.6709
RightArm  -25.4949 -6.03342 38.2892
RightForeArm  59.9753 1.20853 4.46608
RightHand  -0.0399731 -5.19486 -15.2223
LeftUpLeg  -14.2213 -8.3347 16.9889
LeftLeg  19.0522 -8.95376 -3.10311
LeftFoot  -13.7516 -0.168634 -11.886
LeftToes  -1.2485e-010 1.20979e-011 -1.0929e-011
1199
root  41.9407 38.8779 -48.6596 -169.997 13.3704 -178.109
RightUpLeg  -20.4306 -26.2758 -6.36687
RightLeg  19.5189 -17.6927 -6.35966
RightFoot  1.29138 -1.00071 9.10226
RightToes  2.96424e-010 1.2921e-014 -6.02303e-014
Spine  0.131298 1.01698 6.05373
Spine1  4.94279 2.61419 -6.89079
HEad  7.48006 38.8973 -16.1888
LeftShoulder1  0.180174 2.65481 -21.6059
LeftArm  -23.0509 -10.7449 -32.7357
LeftForeArm  -26.2965 -21.8194 -5.87829
LeftHand  0.364507 -1.57232 -5.95682
RightShoulder  1.5291 2.13402 21.8464
RightArm  -27.3088 -4.93865 39.274
RightForeArm  61.1123 -0.686739 3.28205
RightHand  -0.026296 -5.30086 -15.5033
LeftUpLeg  -16.6388 -8.50271 16.4402
LeftLeg  19.7123 -8.35127 -2.98469
LeftFoot  -14.0633 -0.156153 -10.0905
LeftToes  -1.2485e-010 1.20979e-011 -1.0929e-011
